<svg version="1.1" id="Layer_1" xmlns="http://www.w3.org/2000/svg" xmlns:xlink="http://www.w3.org/1999/xlink" x="0px" y="0px"
	 viewBox="0 0 82.5 82.5" style="enable-background:new 0 0 82.5 82.5;" xml:space="preserve">
<style type="text/css">
	.stli{fill:#001932;}
</style>
<g>
	<path class="stli" d="M10.4,2.8C4.9,2.8,1,6.5,1,11.7s3.9,8.9,9.2,8.9c2.8,0,5.1-0.9,6.9-2.6c1.7-1.6,2.6-3.9,2.6-6.4
		C19.5,6.4,15.7,2.8,10.4,2.8z M14.6,15.5c-1.1,1.1-2.6,1.6-4.5,1.6c-3.4,0-5.7-2.2-5.7-5.4c0-3.3,2.4-5.4,5.9-5.4s5.7,2.1,5.8,5.4
		C16.2,13.2,15.6,14.6,14.6,15.5z"/>
	<path class="stli" d="M2.6,81.1h15.6V23.6H2.6V81.1z M6.1,27h8.7v50.6H6.1V27z"/>
	<path class="stli" d="M59.5,23.6c-7.3,0-11.7,2.5-14.3,4.9l-0.5-4.9H27.1v57.5h17.3V50.8c0-1.3,0.5-4,0.9-4.7
		c2.1-4.5,4.9-4.5,9.2-4.5c4.9,0,9.1,4.6,9.1,10.1v29.4H81V48.6C81,31.4,69.9,23.6,59.5,23.6z M77.5,77.6H67.1V51.7
		c0-7.4-5.8-13.6-12.6-13.6c-4.4,0-9.3,0-12.4,6.5c-0.6,1.3-1.2,4.6-1.2,6.2v26.8H30.6V27h11.1l0.7,7h2.9l0.5-0.8
		C47,31.3,50.6,27,59.6,27c8.6,0,17.9,6.7,17.9,21.5V77.6L77.5,77.6z"/>
</g>
</svg>